<svg width="16" height="16" viewBox="0 0 16 16" fill="none" xmlns="http://www.w3.org/2000/svg">
<path d="M14.9333 0H1.06667C0.477563 0 0 0.477563 0 1.06667V3.2C0 3.7891 0.477563 4.26667 1.06667 4.26667H14.9333C15.5224 4.26667 16 3.7891 16 3.2V1.06667C16 0.477563 15.5224 0 14.9333 0Z" fill="#7D7D84"/>
<path d="M6.13333 5.8667H1.06667C0.477563 5.8667 0 6.34426 0 6.93337V9.0667C0 9.6558 0.477563 10.1334 1.06667 10.1334H6.13333C6.72244 10.1334 7.2 9.6558 7.2 9.0667V6.93337C7.2 6.34426 6.72244 5.8667 6.13333 5.8667Z" fill="#7D7D84"/>
<path d="M6.13333 11.7334H1.06667C0.477563 11.7334 0 12.211 0 12.8001V14.9334C0 15.5225 0.477563 16.0001 1.06667 16.0001H6.13333C6.72244 16.0001 7.2 15.5225 7.2 14.9334V12.8001C7.2 12.211 6.72244 11.7334 6.13333 11.7334Z" fill="#7D7D84"/>
<path d="M12.2533 14.2854C12.2894 14.3234 12.3328 14.3536 12.381 14.3742C12.4291 14.3948 12.4809 14.4054 12.5333 14.4054C12.5857 14.4054 12.6375 14.3948 12.6856 14.3742C12.7337 14.3536 12.7772 14.3234 12.8133 14.2854L15.88 11.2454C15.9179 11.2093 15.9481 11.1659 15.9687 11.1178C15.9893 11.0696 16 11.0178 16 10.9654C16 10.9131 15.9893 10.8613 15.9687 10.8131C15.9481 10.765 15.9179 10.7216 15.88 10.6854L12.8 7.61878C12.7638 7.58086 12.7204 7.55067 12.6723 7.53004C12.6241 7.50941 12.5723 7.49878 12.52 7.49878C12.4676 7.49878 12.4158 7.50941 12.3676 7.53004C12.3195 7.55067 12.2761 7.58086 12.24 7.61878L11.68 8.17878C11.642 8.21489 11.6118 8.25833 11.5912 8.30646C11.5706 8.35459 11.56 8.40641 11.56 8.45878C11.56 8.51114 11.5706 8.56296 11.5912 8.61109C11.6118 8.65923 11.642 8.70266 11.68 8.73878L12.64 9.69878C12.6765 9.73605 12.7013 9.78323 12.7113 9.83446C12.7213 9.8857 12.716 9.93874 12.6961 9.98701C12.6763 10.0353 12.6426 10.0766 12.5995 10.106C12.5563 10.1353 12.5055 10.1514 12.4533 10.1521H9.22662C9.11849 10.1538 9.01485 10.1957 8.93596 10.2696C8.85706 10.3436 8.80857 10.4443 8.79996 10.5521V11.3521C8.81233 11.4587 8.8619 11.5575 8.93994 11.6312C9.01798 11.7048 9.11949 11.7486 9.22662 11.7548H12.4666C12.5188 11.7555 12.5696 11.7715 12.6128 11.8009C12.656 11.8302 12.6896 11.8716 12.7095 11.9199C12.7293 11.9682 12.7346 12.0212 12.7246 12.0724C12.7146 12.1237 12.6898 12.1708 12.6533 12.2081L11.6933 13.1681C11.6554 13.2042 11.6252 13.2477 11.6046 13.2958C11.5839 13.3439 11.5733 13.3957 11.5733 13.4481C11.5733 13.5005 11.5839 13.5523 11.6046 13.6004C11.6252 13.6486 11.6554 13.692 11.6933 13.7281L12.2533 14.2854Z" fill="#7D7D84"/>
</svg>
