<svg width="16" height="16" viewBox="0 0 16 16" fill="none" xmlns="http://www.w3.org/2000/svg">
<path d="M15 3.33336H1" stroke="#7D7D84" stroke-linecap="round"/>
<path d="M13.6273 5.27777L13.2484 10.6437C13.1027 12.7087 13.0298 13.7412 12.3174 14.3705C11.6051 15 10.5095 15 8.31824 15H7.68141C5.49014 15 4.39452 15 3.68216 14.3705C2.96981 13.7412 2.89693 12.7087 2.75117 10.6437L2.3724 5.27777" stroke="#7D7D84" stroke-linecap="round"/>
<path d="M5.94115 7.22223L6.35291 11.1111" stroke="#7D7D84" stroke-linecap="round"/>
<path d="M10.0588 7.22223L9.64702 11.1111" stroke="#7D7D84" stroke-linecap="round"/>
<path d="M3.47057 3.33333C3.51659 3.33333 3.5396 3.33333 3.56046 3.33284C4.23858 3.3166 4.83681 2.90937 5.06756 2.30692C5.07466 2.28838 5.08193 2.26777 5.09649 2.22653L5.17644 2C5.2447 1.80662 5.27882 1.70992 5.32408 1.62782C5.50468 1.30028 5.83881 1.07283 6.22494 1.0146C6.32172 1 6.42966 1 6.6455 1H9.3544C9.57025 1 9.67821 1 9.77498 1.0146C10.1611 1.07283 10.4952 1.30028 10.6758 1.62782C10.7211 1.70992 10.7552 1.80662 10.8235 2L10.9035 2.22653C10.9179 2.26772 10.9253 2.2884 10.9324 2.30692C11.1631 2.90937 11.7613 3.3166 12.4395 3.33284C12.4603 3.33333 12.4833 3.33333 12.5293 3.33333" stroke="#7D7D84"/>
</svg>
