<svg width="16" height="16" viewBox="0 0 16 16" fill="none" xmlns="http://www.w3.org/2000/svg">
<path d="M7.26202 2.47597H4.33974C3.17072 2.47597 2.58621 2.47597 2.13971 2.70348C1.74695 2.9036 1.42763 3.22292 1.22751 3.61568C1 4.06219 1 4.6467 1 5.81572V11.6603C1 12.8293 1 13.4138 1.22751 13.8603C1.42763 14.2531 1.74695 14.5724 2.13971 14.7725C2.58621 15 3.17072 15 4.33974 15H10.1843C11.3533 15 11.9378 15 12.3844 14.7725C12.7771 14.5724 13.0964 14.2531 13.2965 13.8603C13.524 13.4138 13.524 12.8293 13.524 11.6603V8.73798M5.17466 10.8253H6.33978C6.68014 10.8253 6.85033 10.8253 7.0105 10.7869C7.15244 10.7528 7.28818 10.6966 7.41273 10.6203C7.55314 10.5342 7.67351 10.4139 7.91418 10.1732L14.5677 3.51964C15.1441 2.94324 15.1441 2.0087 14.5677 1.4323C13.9913 0.8559 13.0568 0.8559 12.4804 1.4323L5.82679 8.08589C5.58612 8.32656 5.46578 8.44686 5.37972 8.58734C5.30343 8.71181 5.2472 8.84756 5.21311 8.98957C5.17466 9.14967 5.17466 9.31986 5.17466 9.66023V10.8253Z" stroke="#7D7D84" stroke-linecap="round" stroke-linejoin="round"/>
</svg>
