<svg width="17" height="10" viewBox="0 0 17 10" fill="none" xmlns="http://www.w3.org/2000/svg">
<path d="M1.12491 0.827649L1.62402 0.325061C1.78111 0.168103 1.99009 0.0816337 2.21345 0.0816337C2.43669 0.0816337 2.64592 0.168103 2.80301 0.325061L8.4966 6.01891L14.1968 0.318743C14.3536 0.161785 14.5628 0.0754395 14.7861 0.0754395C15.0093 0.0754395 15.2187 0.161785 15.3756 0.318743L15.8749 0.818234C16.1999 1.14305 16.1999 1.67215 15.8749 1.99697L9.08814 8.8081C8.9313 8.96494 8.72232 9.07544 8.4971 9.07544H8.4945C8.27114 9.07544 8.06215 8.96481 7.90532 8.8081L1.12491 2.01543C0.967823 1.85859 0.881601 1.64329 0.881354 1.42005C0.881354 1.19669 0.967823 0.984359 1.12491 0.827649Z" fill="#6AA4D9"/>
</svg>
