<svg width="16" height="16" viewBox="0 0 16 16" fill="none" xmlns="http://www.w3.org/2000/svg">
<path d="M14.9333 0H1.06667C0.477563 0 0 0.477563 0 1.06667V3.2C0 3.7891 0.477563 4.26667 1.06667 4.26667H14.9333C15.5224 4.26667 16 3.7891 16 3.2V1.06667C16 0.477563 15.5224 0 14.9333 0Z" fill="#7D7D84"/>
<path d="M6.13333 5.8667H1.06667C0.477563 5.8667 0 6.34426 0 6.93337V9.0667C0 9.6558 0.477563 10.1334 1.06667 10.1334H6.13333C6.72244 10.1334 7.2 9.6558 7.2 9.0667V6.93337C7.2 6.34426 6.72244 5.8667 6.13333 5.8667Z" fill="#7D7D84"/>
<path d="M6.13333 11.7334H1.06667C0.477563 11.7334 0 12.211 0 12.8001V14.9334C0 15.5225 0.477563 16.0001 1.06667 16.0001H6.13333C6.72244 16.0001 7.2 15.5225 7.2 14.9334V12.8001C7.2 12.211 6.72244 11.7334 6.13333 11.7334Z" fill="#7D7D84"/>
<path d="M14.9333 5.8667H9.86666C9.27756 5.8667 8.79999 6.34426 8.79999 6.93337V9.0667C8.79999 9.6558 9.27756 10.1334 9.86666 10.1334H14.9333C15.5224 10.1334 16 9.6558 16 9.0667V6.93337C16 6.34426 15.5224 5.8667 14.9333 5.8667Z" fill="#7D7D84"/>
<path d="M14.9333 11.7334H9.86666C9.27756 11.7334 8.79999 12.211 8.79999 12.8001V14.9334C8.79999 15.5225 9.27756 16.0001 9.86666 16.0001H14.9333C15.5224 16.0001 16 15.5225 16 14.9334V12.8001C16 12.211 15.5224 11.7334 14.9333 11.7334Z" fill="#7D7D84"/>
</svg>
