<svg width="9" height="17" viewBox="0 0 9 17" fill="none" xmlns="http://www.w3.org/2000/svg">
<path d="M8.24779 1.20033L8.75038 1.69945C8.90734 1.85653 8.99381 2.06552 8.99381 2.28888C8.99381 2.51211 8.90734 2.72135 8.75038 2.87843L3.05653 8.57203L8.7567 14.2722C8.91365 14.429 9 14.6383 9 14.8615C9 15.0847 8.91365 15.2941 8.7567 15.451L8.25721 15.9503C7.93239 16.2754 7.40329 16.2754 7.07847 15.9503L0.267337 9.16356C0.110503 9.00673 -1.10797e-07 8.79774 -1.10797e-07 8.57252V8.56992C-1.10797e-07 8.34656 0.110627 8.13757 0.267337 7.98074L7.06001 1.20033C7.21685 1.04325 7.43215 0.957026 7.65539 0.956778C7.87875 0.956778 8.09108 1.04325 8.24779 1.20033Z" fill="#6AA4D9"/>
</svg>
